<svg width="182" height="47" viewBox="0 0 182 47" fill="none" xmlns="http://www.w3.org/2000/svg">
<ellipse cx="23.3119" cy="23.3119" rx="23.3119" ry="23.3119" fill="#BDFF6A"/>
<path fill-rule="evenodd" clip-rule="evenodd" d="M23.2175 8.30544C24.5727 8.30544 25.6714 9.40408 25.6714 10.7593V20.5748C25.6714 21.9301 24.5727 23.0287 23.2175 23.0287C21.8623 23.0287 20.7636 21.9301 20.7636 20.5748V10.7593C20.7636 9.40408 21.8623 8.30544 23.2175 8.30544Z" fill="black"/>
<path fill-rule="evenodd" clip-rule="evenodd" d="M16.2334 13.402C17.5886 13.402 18.6873 14.5006 18.6873 15.8558V25.6714C18.6873 27.0266 17.5886 28.1252 16.2334 28.1252C14.8781 28.1252 13.7795 27.0266 13.7795 25.6714V15.8558C13.7795 14.5006 14.8781 13.402 16.2334 13.402Z" fill="black"/>
<path fill-rule="evenodd" clip-rule="evenodd" d="M9.24925 18.4985C10.6045 18.4985 11.7031 19.5971 11.7031 20.9524V30.7679C11.7031 32.1231 10.6045 33.2218 9.24925 33.2218C7.894 33.2218 6.79536 32.1231 6.79536 30.7679L6.79536 20.9524C6.79536 19.5971 7.894 18.4985 9.24925 18.4985Z" fill="black"/>
<path fill-rule="evenodd" clip-rule="evenodd" d="M30.2016 13.402C28.8464 13.402 27.7477 14.5006 27.7477 15.8558V25.6714C27.7477 27.0266 28.8464 28.1252 30.2016 28.1252C31.5569 28.1252 32.6555 27.0266 32.6555 25.6714V15.8558C32.6555 14.5006 31.5569 13.402 30.2016 13.402Z" fill="black"/>
<path fill-rule="evenodd" clip-rule="evenodd" d="M37.1857 18.4985C35.8305 18.4985 34.7319 19.5971 34.7319 20.9524V30.7679C34.7319 32.1231 35.8305 33.2218 37.1857 33.2218C38.541 33.2218 39.6396 32.1231 39.6396 30.7679V20.9524C39.6396 19.5971 38.541 18.4985 37.1857 18.4985Z" fill="black"/>
<path d="M68.5688 34.9247L67.5738 31.5931H59.3048L58.3098 34.9247H50.5556L59.1676 11.2943H67.9855L76.5975 34.9247H68.5688ZM60.8831 26.3037H65.9955L63.5251 17.8888H63.3878L60.8831 26.3037Z" fill="black"/>
<path d="M99.8027 18.5414C99.8027 19.984 99.4138 21.2891 98.6361 22.4569C97.8584 23.6247 96.7261 24.4834 95.2393 25.0329L100.489 34.9247H91.9798L87.7939 26.3037H84.9804V34.9247H77.3977V11.2943H91.8425C93.5352 11.2943 94.9763 11.6263 96.1657 12.2903C97.378 12.9315 98.2815 13.813 98.8763 14.935C99.4939 16.0341 99.8027 17.2362 99.8027 18.5414ZM92.0827 18.8505C92.0827 18.2323 91.8768 17.7171 91.4651 17.3049C91.0534 16.8928 90.5502 16.6867 89.9554 16.6867H84.9804V21.0487H89.9554C90.5502 21.0487 91.0534 20.8426 91.4651 20.4305C91.8768 19.9954 92.0827 19.4688 92.0827 18.8505Z" fill="black"/>
<path d="M122.322 34.9247V26.4068C122.322 25.3535 122.356 24.2773 122.425 23.1782C122.516 22.0562 122.608 21.1174 122.699 20.3618C122.79 19.6062 122.848 19.1253 122.871 18.9192H122.733L118.376 34.9247H112.44L108.048 18.9536H107.911C107.934 19.1597 107.991 19.6405 108.083 20.3961C108.197 21.1289 108.3 22.0562 108.391 23.1782C108.483 24.2773 108.529 25.3535 108.529 26.4068V34.9247H101.564V11.2943H112.268L115.837 24.9299H115.974L119.508 11.2943H129.836V34.9247H122.322Z" fill="black"/>
<path d="M144.121 10.8821C148.192 10.8821 151.337 11.924 153.556 14.0077C155.775 16.0914 156.884 19.1253 156.884 23.1095C156.884 27.0937 155.775 30.1277 153.556 32.2114C151.337 34.2951 148.192 35.3369 144.121 35.3369C140.049 35.3369 136.904 34.3065 134.685 32.2457C132.489 30.162 131.391 27.1166 131.391 23.1095C131.391 19.1024 132.489 16.0685 134.685 14.0077C136.904 11.924 140.049 10.8821 144.121 10.8821ZM144.121 16.5493C142.496 16.5493 141.261 17.0416 140.415 18.0262C139.569 19.0108 139.145 20.3389 139.145 22.0104V24.2086C139.145 25.8801 139.569 27.2082 140.415 28.1928C141.261 29.1774 142.496 29.6697 144.121 29.6697C145.745 29.6697 146.98 29.1774 147.826 28.1928C148.695 27.2082 149.13 25.8801 149.13 24.2086V22.0104C149.13 20.3389 148.695 19.0108 147.826 18.0262C146.98 17.0416 145.745 16.5493 144.121 16.5493Z" fill="black"/>
<path d="M181.314 18.5414C181.314 19.984 180.925 21.2891 180.147 22.4569C179.37 23.6247 178.237 24.4834 176.75 25.0329L182 34.9247H173.491L169.305 26.3037H166.491V34.9247H158.909V11.2943H173.354C175.046 11.2943 176.487 11.6263 177.677 12.2903C178.889 12.9315 179.793 13.813 180.387 14.935C181.005 16.0341 181.314 17.2362 181.314 18.5414ZM173.594 18.8505C173.594 18.2323 173.388 17.7171 172.976 17.3049C172.565 16.8928 172.061 16.6867 171.467 16.6867H166.491V21.0487H171.467C172.061 21.0487 172.565 20.8426 172.976 20.4305C173.388 19.9954 173.594 19.4688 173.594 18.8505Z" fill="black"/>
</svg>
